<svg width="72" height="36" viewBox="0 0 72 36" version="1.1" xmlns="http://www.w3.org/2000/svg" xmlns:xlink="http://www.w3.org/1999/xlink">
<title>lonely-planet-seeklogo.com</title>
<desc>Created using Figma</desc>
<g id="Canvas" transform="translate(-19954 1553)">
<g id="lonely-planet-seeklogo.com">
<g id="Vector">
<use xlink:href="#path0_fill" transform="translate(19973.1 -1529.71)" fill="#FDFDFD"/>
</g>
<g id="Vector">
<use xlink:href="#path1_fill" transform="translate(19973.1 -1553)" fill="#FDFDFD"/>
</g>
<g id="Subtract">
<use xlink:href="#path2_fill" transform="translate(19990 -1542.06)" fill="#FDFDFD"/>
</g>
<g id="Subtract">
<use xlink:href="#path3_fill" transform="translate(19954 -1542.06)" fill="#FDFDFD"/>
</g>
</g>
</g>
<defs>
<path id="path0_fill" d="M 32.9156 0.687108C 30.5364 7.48585 24.0606 12.386 16.4578 12.386C 8.81924 12.386 2.32556 7.52201 5.45927e-07 0.650942L 0.894447 0.343553L 1.78889 0.0361635C 3.93557 6.11164 9.67791 10.3789 16.4578 10.3789C 23.2198 10.3789 28.998 6.03931 31.1625 5.51812e-07L 32.9156 0.687108Z"/>
<path id="path1_fill" d="M 5.45927e-07 11.9159C 2.37923 4.99057 8.85502 0 16.4578 0C 24.0964 0 30.5901 4.9544 32.9156 11.952L 32.0212 12.2594L 31.1267 12.5668C 28.9801 6.38286 23.2377 2.02516 16.4578 2.02516C 9.6958 2.02516 3.91768 6.45519 1.75312 12.5849L 5.45927e-07 11.9159Z"/>
<path id="path2_fill" fill-rule="evenodd" d="M 35.3125 7.974L 35.2051 8.08252C 34.7578 8.44421 34.0781 8.33569 33.8457 7.81128C 33.6582 7.2561 33.6816 6.67053 33.7051 6.07715C 33.7129 5.8783 33.7207 5.67859 33.7207 5.47876L 35.2949 5.47876L 35.2949 3.14624L 33.7207 3.14624L 33.7207 1.55505L 31.2344 1.55505L 31.2344 5.60535C 30.7871 4.50232 30.1074 3.86951 29.0342 3.38135C 26.9053 2.62183 24.8652 3.526 23.918 5.60535C 23.5596 4.52039 22.9873 3.83337 21.9502 3.34509C 19.875 2.62183 17.8887 3.48975 17.1738 5.60535C 16.6006 4.2854 15.7783 3.5802 14.3652 3.18237C 12.4512 2.85693 10.8408 3.70679 10 5.44263L 10 0L 7.42383 0L 7.42383 5.42456C 7.10156 4.77356 6.74414 4.32153 6.18945 3.85144C 3.54199 1.91663 0.0712891 3.85144 0 7.10608L 0 14.0134L 2.57617 14.0134C 2.57617 13.3082 2.50488 10.614 2.50488 10.614L 2.79102 10.7406C 4.70508 11.2288 6.67285 10.2523 7.42383 8.73352L 7.42383 11.0841L 10 11.0841L 10 8.73352C 10.7334 10.3247 12.1641 11.2468 13.918 11.1202C 14.4238 11.1537 14.876 10.3453 15.1484 9.85718C 15.3193 9.55188 15.4199 9.37183 15.4199 9.60144L 15.4199 11.1202L 16.4219 11.1202L 17.1553 11.1202L 19.6602 11.0841L 19.6602 6.29248C 19.6602 5.29797 21.2695 5.22559 21.3594 6.23816C 21.377 7.79321 21.377 9.54712 21.377 11.0841L 23.918 11.0841L 23.918 8.5708C 24.3828 9.63757 25.0088 10.2704 26.0459 10.7767C 28.0859 11.4639 30.2148 11.1202 31.0195 8.60693L 28.8545 8.24524C 28.3535 9.00476 26.583 9.16748 26.0283 7.66663L 31.1982 7.66663C 31.1982 8.89624 31.2158 9.83643 32.3252 10.6501C 33.4346 11.4639 35.4199 10.6863 35.4023 10.162L 35.3125 7.974ZM 5.61719 7.03381C 5.61719 6.12976 4.88379 5.38843 3.98926 5.38843C 3.07715 5.38843 2.34375 6.12976 2.36133 7.03381C 2.36133 7.93799 3.09473 8.67932 3.98926 8.67932C 4.88379 8.67932 5.61719 7.93799 5.61719 7.03381ZM 13.5234 5.38843C 14.418 5.38843 15.1514 6.12976 15.1514 7.03381C 15.1514 7.93799 14.418 8.67932 13.5234 8.67932C 12.6289 8.67932 11.8955 7.93799 11.8955 7.03381C 11.8779 6.12976 12.6113 5.38843 13.5234 5.38843ZM 26.0098 6.52734L 29.1406 6.52734C 28.6396 4.91809 26.4209 4.99048 26.0098 6.52734Z"/>
<path id="path3_fill" fill-rule="evenodd" d="M 32.7363 11.5905L 32.7363 3.11011L 30.1963 3.11011L 30.1963 7.95593C 30.1963 8.84204 28.9268 8.84204 28.9268 7.95593L 28.9268 3.11011L 26.3857 3.11011L 26.3857 0L 23.8105 0L 23.8105 5.60535C 22.9873 3.81531 21.4131 2.89307 19.4453 3.16431C 18.0322 3.48975 17.0303 4.26733 16.4932 5.60535C 16.0107 4.03223 14.8477 3.18237 13.2383 3.11011C 11.5381 3.11011 10.2686 3.95996 9.74902 5.60535C 8.89062 3.68872 7.17383 2.76648 5.11621 3.23669C 3.88184 3.6344 3.14844 4.2854 2.57617 5.44263L 2.57617 0L 0 0L 0 11.0841L 2.57617 11.0841L 2.57617 8.58887C 3.30957 10.0715 4.52637 10.8853 6.17188 10.9214C 7.9248 10.8129 9.03418 9.98108 9.73145 8.42615L 9.73145 11.0841L 12.2178 11.0841L 12.2178 6.29248C 12.3076 5.24365 13.8818 5.22559 13.9717 6.29248L 13.9717 11.0841L 16.458 11.0841L 16.458 8.5708C 17.0303 9.85461 17.9248 10.6321 19.2842 10.9756C 22.2363 11.2649 23.417 9.20361 23.4346 8.6792L 21.3057 8.35376C 20.2324 9.18555 18.998 8.75159 18.6045 7.64856L 23.792 7.64856L 23.792 11.066L 26.3857 11.066L 26.3857 9.31213C 26.8154 11.048 28.9443 11.6447 30.1426 10.3428C 30.1426 10.7225 30.1074 11.1746 29.9814 11.5361C 29.5879 12.4764 28.2998 12.4764 27.6387 11.8435L 26.1182 13.8325C 27.084 14.6101 28.0674 14.9717 29.3203 14.8632C 30.3574 14.7548 31.002 14.5739 31.8066 13.8506C 32.415 13.1997 32.6826 12.4945 32.7363 11.5905ZM 6.08203 5.35229C 6.97656 5.35229 7.70996 6.09363 7.70996 6.99768C 7.70996 7.90186 6.97656 8.64319 6.08203 8.64319C 5.1875 8.64319 4.4541 7.90186 4.4541 6.99768C 4.4541 6.09363 5.16992 5.35229 6.08203 5.35229ZM 21.7344 6.67212C 21.2158 5.00854 19.0518 5.0448 18.5684 6.67212L 21.7344 6.67212Z"/>
</defs>
</svg>
