<svg width="96" height="29" viewBox="0 0 96 29" version="1.1" xmlns="http://www.w3.org/2000/svg" xmlns:xlink="http://www.w3.org/1999/xlink">
<title>National-Geographic-Logo</title>
<desc>Created using Figma</desc>
<g id="Canvas" transform="translate(-19703 1550)">
<g id="National-Geographic-Logo">
<g id="Vector">
<use xlink:href="#path0_fill" transform="translate(19703 -1550)" fill="#FDFDFD"/>
</g>
<g id="Vector">
<use xlink:href="#path1_fill" transform="translate(19727 -1547.33)" fill="#FDFDFD"/>
</g>
</g>
</g>
<defs>
<path id="path0_fill" d="M 0 0L 0 28.2208L 19.5084 28.2208L 19.5084 0L 0 0ZM 16.6868 25.3797L 2.81147 25.3797L 2.81147 2.84303L 16.6868 2.84303L 16.6868 25.3797Z"/>
<path id="path1_fill" d="M 7.12832 7.17096L 7.10095 7.17096C 5.54468 4.64558 3.97352 2.41488 2.38891 0.169348L 1.17981 0.169348L 1.17981 9.99199L 2.51424 9.99199L 2.51424 2.94732L 2.52768 2.94732C 4.09933 5.48753 5.66952 7.73306 7.25461 9.99199L 8.46371 9.99199L 8.46371 0.169348L 7.12832 0.169348L 7.12832 7.17096ZM 16.7613 9.99199L 13.6612 0.169348L 12.272 0.169348L 8.90788 9.99199L 10.3532 9.99199L 11.2017 7.31161L 14.1337 7.31161L 14.8986 9.99199L 16.7613 9.99199ZM 11.632 6.10417C 12.0214 4.81301 12.4108 3.62232 12.758 2.10489L 12.7863 2.10489C 13.1758 3.62184 13.5229 4.81301 13.8845 6.10417L 11.632 6.10417ZM 18.3315 9.99199L 19.9996 9.99199L 19.9996 1.48873L 22.5576 1.48873L 22.5576 0.169348L 15.7745 0.169348L 15.7745 1.48873L 18.332 1.48873L 18.332 9.99199L 18.3315 9.99199ZM 24.753 0.169348L 23.0992 0.169348L 23.0992 9.99199L 24.753 9.99199L 24.753 0.169348ZM 29.8972 10.1594C 32.4412 10.1594 34.0258 7.87275 34.0258 4.93978C 34.0258 2.18956 32.2736 3.2848e-08 29.8972 3.2848e-08C 27.5198 3.2848e-08 25.7676 2.18956 25.7676 4.93978C 25.7676 7.87323 27.3522 10.1594 29.8972 10.1594ZM 29.8972 1.40405C 31.5514 1.40405 32.2458 3.12958 32.2458 4.94026C 32.2458 6.82031 31.635 8.7568 29.8972 8.7568C 28.1594 8.7568 27.5481 6.82079 27.5481 4.94026C 27.5481 3.12958 28.2429 1.40405 29.8972 1.40405ZM 36.3734 2.94732L 36.3888 2.94732C 37.959 5.48753 39.5292 7.73306 41.1143 9.99199L 42.3234 9.99199L 42.3234 0.169348L 40.9889 0.169348L 40.9889 7.17096L 40.9611 7.17096C 39.4048 4.64558 37.8336 2.41488 36.249 0.169348L 35.0399 0.169348L 35.0399 9.99199L 36.3734 9.99199L 36.3734 2.94732ZM 45.0604 7.31161L 47.9943 7.31161L 48.7588 9.99199L 50.6209 9.99199L 47.5218 0.169348L 46.1317 0.169348L 42.7671 9.99199L 44.2143 9.99199L 45.0604 7.31161ZM 46.6191 2.10489L 46.6465 2.10489C 47.0349 3.62184 47.3826 4.81301 47.7451 6.10417L 45.4916 6.10417C 45.882 4.81301 46.27 3.62184 46.6191 2.10489ZM 56.0556 8.67213L 52.7621 8.67213L 52.7621 0.169348L 51.1074 0.169348L 51.1074 9.99199L 56.0561 9.99199L 56.0561 8.67213L 56.0556 8.67213ZM 5.76844 21.2263C 5.42031 21.4091 5.04577 21.4655 4.60112 21.4655C 3.16969 21.4655 1.77956 20.0897 1.77956 17.7609C 1.77956 15.5302 2.98866 14.1123 4.76822 14.1123C 5.40782 14.1123 6.10265 14.3505 6.5473 14.6309L 7.08894 13.467C 6.53337 13.045 5.62967 12.7087 4.72596 12.7087C 1.80741 12.7087 1.4654e-08 15.0523 1.4654e-08 17.7322C 1.4654e-08 20.6231 1.80741 22.8686 4.66978 22.8686C 5.61526 22.8686 6.54682 22.6175 7.43708 22.2649L 7.43708 18.2087L 5.76844 18.2087L 5.76844 21.2263ZM 10.6188 18.2097L 13.3438 18.2097L 13.3438 16.8912L 10.6188 16.8912L 10.6188 14.197L 13.3995 14.197L 13.3995 12.8781L 8.95158 12.8781L 8.95158 22.7007L 13.8999 22.7007L 13.8999 21.3804L 10.6188 21.3804L 10.6188 18.2097ZM 18.5428 12.7092C 16.1654 12.7092 14.4146 14.8983 14.4146 17.649C 14.4146 20.5815 15.9987 22.8691 18.5428 22.8691C 21.0863 22.8691 22.6704 20.5815 22.6704 17.649C 22.6704 14.8983 20.9192 12.7092 18.5428 12.7092ZM 18.5428 21.4655C 16.8045 21.4655 16.1932 19.529 16.1932 17.6485C 16.1932 15.8378 16.888 14.1118 18.5428 14.1118C 20.1965 14.1118 20.8913 15.8374 20.8913 17.6485C 20.8913 19.529 20.2805 21.4655 18.5428 21.4655ZM 29.0093 21.2263C 28.6621 21.4091 28.2862 21.4655 27.8415 21.4655C 26.4096 21.4655 25.0195 20.0897 25.0195 17.7609C 25.0195 15.5302 26.2291 14.1123 28.0091 14.1123C 28.6482 14.1123 29.3435 14.3505 29.7867 14.6309L 30.3293 13.467C 29.7738 13.045 28.8696 12.7087 27.9654 12.7087C 25.0478 12.7087 23.2409 15.0523 23.2409 17.7322C 23.2409 20.6231 25.0478 22.8686 27.9116 22.8686C 28.8557 22.8686 29.7867 22.6175 30.6775 22.2649L 30.6775 18.2087L 29.0093 18.2087L 29.0093 21.2263ZM 37.8221 15.713C 37.8221 13.8033 36.6678 12.8781 34.8061 12.8781L 32.2064 12.8781L 32.2064 22.7007L 33.8741 22.7007L 33.8741 18.9961L 34.6246 18.9961L 36.1953 22.7007L 38.0992 22.7007L 36.1405 18.6306C 37.2094 18.0556 37.8221 16.8912 37.8221 15.713ZM 34.5694 17.7327C 34.4018 17.7471 34.0119 17.7614 33.8736 17.7753L 33.8736 14.1975L 34.6116 14.1975C 35.597 14.1975 36.1525 14.7715 36.1525 15.7823C 36.1525 17.1008 35.3617 17.6911 34.5694 17.7327ZM 41.4917 12.8781L 38.127 22.7007L 39.5719 22.7007L 40.4204 20.0199L 43.3534 20.0199L 44.1197 22.7007L 45.9809 22.7007L 42.8809 12.8781L 41.4917 12.8781ZM 40.8526 18.8143C 41.2415 17.5222 41.6305 16.3296 41.9781 14.8146L 42.0064 14.8146C 42.3949 16.3296 42.7426 17.5222 43.1046 18.8143L 40.8526 18.8143ZM 58.1857 16.6525L 54.7241 16.6525L 54.7241 12.8781L 53.0699 12.8781L 53.0699 22.7007L 54.7241 22.7007L 54.7241 17.9709L 58.1857 17.9709L 58.1857 22.7007L 59.8529 22.7007L 59.8529 12.9049L 58.1857 12.9049L 58.1857 16.6525ZM 61.451 22.6998L 63.1047 22.6998L 63.1047 12.8781L 61.451 12.8781L 61.451 22.6998ZM 68.9433 21.4655C 67.3308 21.4655 65.9681 20.0897 65.9681 17.7609C 65.9681 15.5302 67.2065 14.1123 68.9015 14.1123C 69.5411 14.1123 70.2086 14.4065 70.6119 14.6591L 71.1396 13.4674C 70.5697 13.0742 69.7644 12.7092 68.902 12.7092C 65.9969 12.7092 64.2034 15.0528 64.2034 17.7327C 64.2034 20.6236 66.0108 22.8691 68.8751 22.8691C 69.6808 22.8691 70.5701 22.5462 71.0705 22.196L 70.6124 20.9747C 70.1812 21.255 69.5829 21.4655 68.9433 21.4655ZM 49.1079 12.8781L 46.5101 12.8781L 46.5101 22.7007L 48.1782 22.7007L 48.1782 18.9961L 48.9278 18.9961C 50.9167 18.9961 52.1249 17.3672 52.1249 15.713C 52.1244 13.8033 50.9719 12.8781 49.1079 12.8781ZM 48.8721 17.7327C 48.7055 17.7456 48.3031 17.759 48.1778 17.7719L 48.1778 14.197L 48.9273 14.197C 49.9011 14.197 50.4572 14.771 50.4572 15.7819C 50.4567 17.1008 49.6644 17.6911 48.8721 17.7327Z"/>
</defs>
</svg>
