<svg width="261" height="56" viewBox="0 0 261 56" version="1.1" xmlns="http://www.w3.org/2000/svg" xmlns:xlink="http://www.w3.org/1999/xlink">
<title>trip</title>
<desc>Created using Figma</desc>
<g id="Canvas" transform="translate(-19032 1564)">
<g id="trip">
<g id="As recommended by 99% of users on TripAdvisor">
<use xlink:href="#path0_fill" transform="translate(19113 -1542)" fill="#FDFDFD"/>
</g>
<g id="Vector">
<use xlink:href="#path1_fill" transform="translate(19114 -1564)" fill="#FDFDFD"/>
</g>
<g id="Vector">
<use xlink:href="#path1_fill" transform="translate(19134 -1564)" fill="#FDFDFD"/>
</g>
<g id="Vector">
<use xlink:href="#path1_fill" transform="translate(19154 -1564)" fill="#FDFDFD"/>
</g>
<g id="Vector">
<use xlink:href="#path1_fill" transform="translate(19174 -1564)" fill="#FDFDFD"/>
</g>
<g id="Vector">
<use xlink:href="#path1_fill" transform="translate(19194 -1564)" fill="#FDFDFD"/>
</g>
<g id="Line" opacity="0.4">
<use xlink:href="#path2_stroke" transform="matrix(6.12323e-17 1 -1 6.12323e-17 19097 -1561)" fill="#E8E8E8"/>
</g>
<g id="Group 12">
<g id="path4219">
<use xlink:href="#path3_fill" transform="translate(19042.1 -1535.95)" fill="#FDFDFD"/>
</g>
<g id="path4221">
<use xlink:href="#path4_fill" transform="translate(19066.7 -1535.95)" fill="#FDFDFD"/>
</g>
<g id="path4225">
<use xlink:href="#path5_fill" transform="translate(19038.1 -1540.1)" fill="#FDFDFD"/>
</g>
<g id="path4229">
<use xlink:href="#path6_fill" transform="translate(19062.6 -1540.1)" fill="#FDFDFD"/>
</g>
<g id="path4239">
<use xlink:href="#path7_fill" transform="translate(19032 -1551)" fill="#FDFDFD"/>
</g>
</g>
</g>
</g>
<defs>
<path id="path0_fill" d="M 5.32 3.396L 9.072 13L 7.588 13L 6.776 10.914L 2.184 10.914L 1.386 13L 0.056 13L 3.808 3.396L 5.32 3.396ZM 4.536 5.048L 4.452 5.048L 2.674 9.668L 6.3 9.668L 4.536 5.048ZM 13.0248 5.706C 13.5568 5.706 14.0281 5.79 14.4388 5.958C 14.8588 6.126 15.1808 6.35933 15.4048 6.658C 15.6381 6.95667 15.7548 7.288 15.7548 7.652L 15.7408 7.904L 14.4388 7.904L 14.4388 7.778C 14.4388 7.09667 13.9115 6.756 12.8568 6.756C 11.8115 6.756 11.2888 7.06867 11.2888 7.694C 11.2888 7.98333 11.4381 8.198 11.7368 8.338C 12.0355 8.46867 12.4928 8.59467 13.1088 8.716C 13.6968 8.83733 14.1775 8.96333 14.5508 9.094C 14.9335 9.22467 15.2555 9.43 15.5168 9.71C 15.7875 9.99 15.9228 10.368 15.9228 10.844C 15.9228 11.6093 15.6615 12.1833 15.1388 12.566C 14.6161 12.9487 13.8648 13.14 12.8848 13.14L 12.6748 13.14C 12.0868 13.14 11.5735 13.0513 11.1348 12.874C 10.6961 12.6873 10.3555 12.44 10.1128 12.132C 9.87948 11.8147 9.76748 11.46 9.77681 11.068L 9.77681 10.76L 11.0788 10.76L 11.0788 10.9C 11.0788 11.6933 11.7461 12.09 13.0808 12.09C 13.4728 12.09 13.8228 12.0013 14.1308 11.824C 14.4481 11.6467 14.6068 11.404 14.6068 11.096C 14.6068 10.8347 14.5181 10.6293 14.3408 10.48C 14.1728 10.3307 13.9628 10.2187 13.7108 10.144C 13.4588 10.0693 13.1088 9.99467 12.6608 9.92C 12.0821 9.808 11.6155 9.696 11.2608 9.584C 10.9061 9.46267 10.6028 9.262 10.3508 8.982C 10.0988 8.702 9.97281 8.31933 9.97281 7.834C 9.97281 7.17133 10.2341 6.65333 10.7568 6.28C 11.2795 5.89733 11.9935 5.706 12.8988 5.706L 13.0248 5.706ZM 24.4113 5.706C 25.074 5.706 25.592 5.92067 25.9653 6.35C 26.3386 6.77 26.5253 7.302 26.5253 7.946L 26.4833 8.478L 25.3213 8.478L 25.3213 8.17C 25.3213 7.89 25.2513 7.64267 25.1113 7.428C 24.9713 7.21333 24.794 7.05 24.5793 6.938C 24.3646 6.81667 24.15 6.756 23.9353 6.756C 23.4873 6.756 23.1373 6.93333 22.8853 7.288C 22.6333 7.64267 22.5073 8.12333 22.5073 8.73L 22.5073 13L 21.1913 13L 21.1913 5.846L 22.1293 5.846L 22.3253 6.91C 22.3813 6.72333 22.5073 6.53667 22.7033 6.35C 22.8993 6.16333 23.142 6.00933 23.4313 5.888C 23.73 5.76667 24.0566 5.706 24.4113 5.706ZM 30.9246 5.706C 31.5126 5.706 32.0306 5.832 32.4786 6.084C 32.9359 6.32667 33.2906 6.67667 33.5426 7.134C 33.7946 7.59133 33.9206 8.12333 33.9206 8.73L 33.9206 9.724L 28.9226 9.724C 28.9412 10.48 29.1186 11.0633 29.4546 11.474C 29.7906 11.8847 30.2899 12.09 30.9526 12.09C 31.5406 12.09 31.9746 11.9173 32.2546 11.572C 32.5346 11.2267 32.6746 10.816 32.6746 10.34L 33.9206 10.34C 33.9206 10.9 33.7899 11.39 33.5286 11.81C 33.2766 12.23 32.9219 12.5567 32.4646 12.79C 32.0166 13.0233 31.5032 13.14 30.9246 13.14L 30.8686 13.14C 29.8606 13.14 29.0626 12.818 28.4746 12.174C 27.8959 11.5207 27.6066 10.6527 27.6066 9.57L 27.6066 9.29C 27.6066 8.58067 27.7372 7.95533 27.9986 7.414C 28.2599 6.87267 28.6332 6.45267 29.1186 6.154C 29.6039 5.85533 30.1732 5.706 30.8266 5.706L 30.9246 5.706ZM 30.8546 6.756C 30.3226 6.756 29.8886 6.91933 29.5526 7.246C 29.2259 7.57267 29.0252 8.058 28.9506 8.702L 32.6186 8.702L 32.6186 8.534C 32.6186 8.002 32.4552 7.57267 32.1286 7.246C 31.8112 6.91933 31.3866 6.756 30.8546 6.756ZM 38.6339 5.706C 39.2032 5.706 39.7119 5.832 40.1599 6.084C 40.6172 6.32667 40.9719 6.672 41.2239 7.12C 41.4759 7.568 41.6019 8.08133 41.6019 8.66L 40.2999 8.66C 40.2999 8.08133 40.1505 7.61933 39.8519 7.274C 39.5625 6.92867 39.1425 6.756 38.5919 6.756C 38.0132 6.756 37.5512 6.952 37.2059 7.344C 36.8699 7.72667 36.7019 8.254 36.7019 8.926L 36.7019 9.682C 36.7019 10.494 36.8699 11.1007 37.2059 11.502C 37.5419 11.894 38.0179 12.09 38.6339 12.09C 39.2032 12.09 39.6279 11.922 39.9079 11.586C 40.1972 11.2407 40.3419 10.7787 40.3419 10.2L 41.6019 10.2C 41.6019 11.096 41.3312 11.81 40.7899 12.342C 40.2579 12.874 39.5439 13.14 38.6479 13.14L 38.5359 13.14C 37.9012 13.14 37.3459 12.9953 36.8699 12.706C 36.3939 12.4073 36.0252 11.992 35.7639 11.46C 35.5119 10.928 35.3859 10.3073 35.3859 9.598L 35.3859 9.262C 35.3859 8.55267 35.5165 7.932 35.7779 7.4C 36.0392 6.85867 36.4079 6.44333 36.8839 6.154C 37.3599 5.85533 37.9059 5.706 38.5219 5.706L 38.6339 5.706ZM 46.3051 5.706C 47.3038 5.706 48.1018 6.014 48.6991 6.63C 49.2964 7.246 49.5951 8.09067 49.5951 9.164L 49.5951 9.682C 49.5951 10.7553 49.3011 11.6 48.7131 12.216C 48.1251 12.832 47.3224 13.14 46.3051 13.14C 45.2878 13.14 44.4851 12.832 43.8971 12.216C 43.3091 11.6 43.0151 10.7553 43.0151 9.682L 43.0151 9.164C 43.0151 8.09067 43.3138 7.246 43.9111 6.63C 44.5084 6.014 45.3064 5.706 46.3051 5.706ZM 46.3051 6.756C 45.6798 6.756 45.1944 6.97067 44.8491 7.4C 44.5038 7.82933 44.3311 8.45933 44.3311 9.29L 44.3311 9.556C 44.3311 10.368 44.4991 10.9933 44.8351 11.432C 45.1804 11.8707 45.6704 12.09 46.3051 12.09C 46.9211 12.09 47.4018 11.8753 47.7471 11.446C 48.1018 11.0073 48.2791 10.3773 48.2791 9.556L 48.2791 9.29C 48.2791 8.478 48.1064 7.85267 47.7611 7.414C 47.4251 6.97533 46.9398 6.756 46.3051 6.756ZM 59.0342 5.706C 59.7715 5.706 60.3455 5.92067 60.7562 6.35C 61.1668 6.77933 61.3722 7.39067 61.3722 8.184L 61.3722 13L 60.0562 13L 60.0562 8.422C 60.0562 7.31133 59.6268 6.756 58.7682 6.756C 58.4695 6.756 58.1895 6.84467 57.9282 7.022C 57.6762 7.19933 57.4708 7.442 57.3122 7.75C 57.1628 8.04867 57.0882 8.38 57.0882 8.744L 57.0882 13L 55.7722 13L 55.7722 8.422C 55.7722 7.31133 55.3428 6.756 54.4842 6.756C 54.1855 6.756 53.9055 6.84467 53.6442 7.022C 53.3922 7.19933 53.1868 7.442 53.0282 7.75C 52.8788 8.04867 52.8042 8.38 52.8042 8.744L 52.8042 13L 51.4882 13L 51.4882 5.846L 52.4402 5.846L 52.6222 6.896C 53.1635 6.10267 53.9148 5.706 54.8762 5.706C 55.8188 5.706 56.4722 6.10267 56.8362 6.896C 57.1535 6.448 57.4942 6.14 57.8582 5.972C 58.2222 5.79467 58.6142 5.706 59.0342 5.706ZM 71.1748 5.706C 71.9121 5.706 72.4861 5.92067 72.8968 6.35C 73.3075 6.77933 73.5128 7.39067 73.5128 8.184L 73.5128 13L 72.1968 13L 72.1968 8.422C 72.1968 7.31133 71.7675 6.756 70.9088 6.756C 70.6101 6.756 70.3301 6.84467 70.0688 7.022C 69.8168 7.19933 69.6115 7.442 69.4528 7.75C 69.3035 8.04867 69.2288 8.38 69.2288 8.744L 69.2288 13L 67.9128 13L 67.9128 8.422C 67.9128 7.31133 67.4835 6.756 66.6248 6.756C 66.3261 6.756 66.0461 6.84467 65.7848 7.022C 65.5328 7.19933 65.3275 7.442 65.1688 7.75C 65.0195 8.04867 64.9448 8.38 64.9448 8.744L 64.9448 13L 63.6288 13L 63.6288 5.846L 64.5808 5.846L 64.7628 6.896C 65.3041 6.10267 66.0555 5.706 67.0168 5.706C 67.9595 5.706 68.6128 6.10267 68.9768 6.896C 69.2941 6.448 69.6348 6.14 69.9988 5.972C 70.3628 5.79467 70.7548 5.706 71.1748 5.706ZM 78.6394 5.706C 79.2274 5.706 79.7454 5.832 80.1934 6.084C 80.6508 6.32667 81.0054 6.67667 81.2574 7.134C 81.5094 7.59133 81.6354 8.12333 81.6354 8.73L 81.6354 9.724L 76.6374 9.724C 76.6561 10.48 76.8334 11.0633 77.1694 11.474C 77.5054 11.8847 78.0048 12.09 78.6674 12.09C 79.2554 12.09 79.6894 11.9173 79.9694 11.572C 80.2494 11.2267 80.3894 10.816 80.3894 10.34L 81.6354 10.34C 81.6354 10.9 81.5048 11.39 81.2434 11.81C 80.9914 12.23 80.6368 12.5567 80.1794 12.79C 79.7314 13.0233 79.2181 13.14 78.6394 13.14L 78.5834 13.14C 77.5754 13.14 76.7774 12.818 76.1894 12.174C 75.6108 11.5207 75.3214 10.6527 75.3214 9.57L 75.3214 9.29C 75.3214 8.58067 75.4521 7.95533 75.7134 7.414C 75.9748 6.87267 76.3481 6.45267 76.8334 6.154C 77.3188 5.85533 77.8881 5.706 78.5414 5.706L 78.6394 5.706ZM 78.5694 6.756C 78.0374 6.756 77.6034 6.91933 77.2674 7.246C 76.9408 7.57267 76.7401 8.058 76.6654 8.702L 80.3334 8.702L 80.3334 8.534C 80.3334 8.002 80.1701 7.57267 79.8434 7.246C 79.5261 6.91933 79.1014 6.756 78.5694 6.756ZM 87.0767 5.706C 87.8607 5.706 88.4767 5.916 88.9247 6.336C 89.3727 6.756 89.5967 7.372 89.5967 8.184L 89.5967 13L 88.2807 13L 88.2807 8.422C 88.2807 7.31133 87.7767 6.756 86.7687 6.756C 86.4327 6.756 86.1201 6.84467 85.8307 7.022C 85.5414 7.19933 85.3081 7.442 85.1307 7.75C 84.9534 8.04867 84.8647 8.38 84.8647 8.744L 84.8647 13L 83.5487 13L 83.5487 5.846L 84.5007 5.846L 84.6827 6.896C 85.2801 6.10267 86.0781 5.706 87.0767 5.706ZM 97.6855 13L 96.7055 13C 96.6402 12.7013 96.5795 12.3747 96.5235 12.02C 95.9915 12.7667 95.2542 13.14 94.3115 13.14C 93.4155 13.14 92.7062 12.8087 92.1835 12.146C 91.6702 11.4833 91.4135 10.5733 91.4135 9.416L 91.4135 9.262C 91.4135 8.17 91.6655 7.30667 92.1695 6.672C 92.6829 6.028 93.3969 5.706 94.3115 5.706C 95.1982 5.706 95.8842 6.056 96.3695 6.756L 96.3695 2.92L 97.6855 2.92L 97.6855 13ZM 94.5495 6.756C 93.9242 6.756 93.4622 6.97533 93.1635 7.414C 92.8742 7.84333 92.7295 8.51533 92.7295 9.43C 92.7295 10.3447 92.8789 11.0167 93.1775 11.446C 93.4762 11.8753 93.9335 12.09 94.5495 12.09C 95.7722 12.09 96.3835 11.2033 96.3835 9.43C 96.3835 8.51533 96.2295 7.84333 95.9215 7.414C 95.6135 6.97533 95.1562 6.756 94.5495 6.756ZM 102.88 5.706C 103.468 5.706 103.986 5.832 104.434 6.084C 104.891 6.32667 105.246 6.67667 105.498 7.134C 105.75 7.59133 105.876 8.12333 105.876 8.73L 105.876 9.724L 100.878 9.724C 100.896 10.48 101.074 11.0633 101.41 11.474C 101.746 11.8847 102.245 12.09 102.908 12.09C 103.496 12.09 103.93 11.9173 104.21 11.572C 104.49 11.2267 104.63 10.816 104.63 10.34L 105.876 10.34C 105.876 10.9 105.745 11.39 105.484 11.81C 105.232 12.23 104.877 12.5567 104.42 12.79C 103.972 13.0233 103.458 13.14 102.88 13.14L 102.824 13.14C 101.816 13.14 101.018 12.818 100.43 12.174C 99.851 11.5207 99.5617 10.6527 99.5617 9.57L 99.5617 9.29C 99.5617 8.58067 99.6923 7.95533 99.9537 7.414C 100.215 6.87267 100.588 6.45267 101.074 6.154C 101.559 5.85533 102.128 5.706 102.782 5.706L 102.88 5.706ZM 102.81 6.756C 102.278 6.756 101.844 6.91933 101.508 7.246C 101.181 7.57267 100.98 8.058 100.906 8.702L 104.574 8.702L 104.574 8.534C 104.574 8.002 104.41 7.57267 104.084 7.246C 103.766 6.91933 103.342 6.756 102.81 6.756ZM 113.627 13L 112.647 13C 112.582 12.7013 112.521 12.3747 112.465 12.02C 111.933 12.7667 111.196 13.14 110.253 13.14C 109.357 13.14 108.648 12.8087 108.125 12.146C 107.612 11.4833 107.355 10.5733 107.355 9.416L 107.355 9.262C 107.355 8.17 107.607 7.30667 108.111 6.672C 108.624 6.028 109.338 5.706 110.253 5.706C 111.14 5.706 111.826 6.056 112.311 6.756L 112.311 2.92L 113.627 2.92L 113.627 13ZM 110.491 6.756C 109.866 6.756 109.404 6.97533 109.105 7.414C 108.816 7.84333 108.671 8.51533 108.671 9.43C 108.671 10.3447 108.82 11.0167 109.119 11.446C 109.418 11.8753 109.875 12.09 110.491 12.09C 111.714 12.09 112.325 11.2033 112.325 9.43C 112.325 8.51533 112.171 7.84333 111.863 7.414C 111.555 6.97533 111.098 6.756 110.491 6.756ZM 120.685 6.756C 120.9 6.448 121.189 6.196 121.553 6C 121.926 5.804 122.328 5.706 122.757 5.706C 123.672 5.706 124.381 6.028 124.885 6.672C 125.389 7.30667 125.641 8.17 125.641 9.262L 125.641 9.416C 125.641 10.5733 125.38 11.4833 124.857 12.146C 124.344 12.8087 123.639 13.14 122.743 13.14C 121.679 13.14 120.876 12.7153 120.335 11.866L 119.873 13L 119.369 13L 119.369 2.92L 120.685 2.92L 120.685 6.756ZM 122.491 6.756C 121.866 6.756 121.404 6.97533 121.105 7.414C 120.816 7.84333 120.671 8.51533 120.671 9.43C 120.671 10.3447 120.82 11.0167 121.119 11.446C 121.418 11.8753 121.875 12.09 122.491 12.09C 123.714 12.09 124.325 11.2033 124.325 9.43C 124.325 8.51533 124.171 7.84333 123.863 7.414C 123.555 6.97533 123.098 6.756 122.491 6.756ZM 130.695 12.72C 130.378 13.504 130.084 14.1013 129.813 14.512C 129.542 14.932 129.267 15.2167 128.987 15.366C 128.707 15.5247 128.38 15.604 128.007 15.604C 127.662 15.604 127.335 15.5387 127.027 15.408L 127.027 14.33C 127.335 14.4607 127.568 14.526 127.727 14.526C 128.11 14.526 128.427 14.3953 128.679 14.134C 128.94 13.882 129.155 13.4807 129.323 12.93L 126.537 5.846L 127.937 5.846L 129.995 11.124L 130.051 11.124L 132.081 5.846L 133.369 5.846L 130.695 12.72ZM 141.137 3.256C 141.781 3.256 142.351 3.396 142.845 3.676C 143.349 3.956 143.741 4.34333 144.021 4.838C 144.311 5.33267 144.455 5.89267 144.455 6.518L 144.455 9.906C 144.455 10.4847 144.311 11.026 144.021 11.53C 143.732 12.0247 143.335 12.4167 142.831 12.706C 142.337 12.9953 141.8 13.14 141.221 13.14C 140.587 13.14 140.022 13.0093 139.527 12.748C 139.042 12.4773 138.664 12.1087 138.393 11.642C 138.123 11.166 137.987 10.6247 137.987 10.018L 139.359 10.018C 139.359 10.5967 139.527 11.054 139.863 11.39C 140.199 11.726 140.652 11.894 141.221 11.894C 141.557 11.894 141.865 11.81 142.145 11.642C 142.435 11.474 142.663 11.25 142.831 10.97C 142.999 10.6807 143.083 10.368 143.083 10.032L 143.083 8.52C 142.514 9.136 141.791 9.444 140.913 9.444C 140.353 9.444 139.835 9.31333 139.359 9.052C 138.893 8.79067 138.519 8.436 138.239 7.988C 137.969 7.53067 137.833 7.03133 137.833 6.49C 137.833 5.85533 137.973 5.29533 138.253 4.81C 138.533 4.31533 138.921 3.93267 139.415 3.662C 139.919 3.39133 140.493 3.256 141.137 3.256ZM 141.137 4.502C 140.587 4.502 140.125 4.67467 139.751 5.02C 139.387 5.356 139.205 5.79933 139.205 6.35C 139.205 6.90067 139.387 7.34867 139.751 7.694C 140.125 8.03 140.587 8.198 141.137 8.198C 141.688 8.198 142.15 8.02533 142.523 7.68C 142.897 7.33467 143.083 6.89133 143.083 6.35C 143.083 5.80867 142.897 5.36533 142.523 5.02C 142.15 4.67467 141.688 4.502 141.137 4.502ZM 149.75 3.256C 150.394 3.256 150.964 3.396 151.458 3.676C 151.962 3.956 152.354 4.34333 152.634 4.838C 152.924 5.33267 153.068 5.89267 153.068 6.518L 153.068 9.906C 153.068 10.4847 152.924 11.026 152.634 11.53C 152.345 12.0247 151.948 12.4167 151.444 12.706C 150.95 12.9953 150.413 13.14 149.834 13.14C 149.2 13.14 148.635 13.0093 148.14 12.748C 147.655 12.4773 147.277 12.1087 147.006 11.642C 146.736 11.166 146.6 10.6247 146.6 10.018L 147.972 10.018C 147.972 10.5967 148.14 11.054 148.476 11.39C 148.812 11.726 149.265 11.894 149.834 11.894C 150.17 11.894 150.478 11.81 150.758 11.642C 151.048 11.474 151.276 11.25 151.444 10.97C 151.612 10.6807 151.696 10.368 151.696 10.032L 151.696 8.52C 151.127 9.136 150.404 9.444 149.526 9.444C 148.966 9.444 148.448 9.31333 147.972 9.052C 147.506 8.79067 147.132 8.436 146.852 7.988C 146.582 7.53067 146.446 7.03133 146.446 6.49C 146.446 5.85533 146.586 5.29533 146.866 4.81C 147.146 4.31533 147.534 3.93267 148.028 3.662C 148.532 3.39133 149.106 3.256 149.75 3.256ZM 149.75 4.502C 149.2 4.502 148.738 4.67467 148.364 5.02C 148 5.356 147.818 5.79933 147.818 6.35C 147.818 6.90067 148 7.34867 148.364 7.694C 148.738 8.03 149.2 8.198 149.75 8.198C 150.301 8.198 150.763 8.02533 151.136 7.68C 151.51 7.33467 151.696 6.89133 151.696 6.35C 151.696 5.80867 151.51 5.36533 151.136 5.02C 150.763 4.67467 150.301 4.502 149.75 4.502ZM 162.48 3.396L 156.656 13L 155.676 13L 161.528 3.396L 162.48 3.396ZM 156.39 3.41C 156.884 3.41 157.29 3.57333 157.608 3.9C 157.925 4.21733 158.084 4.61867 158.084 5.104L 158.084 6.602C 158.084 7.08733 157.92 7.49333 157.594 7.82C 157.276 8.13733 156.875 8.296 156.39 8.296L 156.292 8.296C 155.806 8.296 155.4 8.13733 155.074 7.82C 154.756 7.49333 154.598 7.08733 154.598 6.602L 154.598 5.104C 154.598 4.61867 154.756 4.21733 155.074 3.9C 155.391 3.57333 155.797 3.41 156.292 3.41L 156.39 3.41ZM 156.348 4.18C 156.086 4.18 155.876 4.25933 155.718 4.418C 155.568 4.56733 155.494 4.76333 155.494 5.006L 155.494 6.7C 155.494 6.94267 155.568 7.14333 155.718 7.302C 155.876 7.45133 156.086 7.526 156.348 7.526C 156.609 7.526 156.814 7.45133 156.964 7.302C 157.113 7.14333 157.188 6.94267 157.188 6.7L 157.188 5.006C 157.188 4.76333 157.113 4.56733 156.964 4.418C 156.814 4.25933 156.609 4.18 156.348 4.18ZM 161.85 8.128C 162.335 8.128 162.736 8.29133 163.054 8.618C 163.38 8.93533 163.544 9.33667 163.544 9.822L 163.544 11.32C 163.544 11.8053 163.385 12.2113 163.068 12.538C 162.75 12.8553 162.344 13.014 161.85 13.014L 161.752 13.014C 161.257 13.014 160.851 12.8553 160.534 12.538C 160.216 12.2113 160.058 11.8053 160.058 11.32L 160.058 9.822C 160.058 9.33667 160.216 8.93533 160.534 8.618C 160.86 8.29133 161.266 8.128 161.752 8.128L 161.85 8.128ZM 161.808 8.898C 161.546 8.898 161.336 8.97733 161.178 9.136C 161.028 9.28533 160.954 9.48133 160.954 9.724L 160.954 11.418C 160.954 11.6607 161.028 11.8613 161.178 12.02C 161.336 12.1693 161.546 12.244 161.808 12.244C 162.069 12.244 162.274 12.1693 162.424 12.02C 162.573 11.8613 162.648 11.6607 162.648 11.418L 162.648 9.724C 162.648 9.48133 162.573 9.28533 162.424 9.136C 162.274 8.97733 162.069 8.898 161.808 8.898ZM 171.403 5.706C 172.401 5.706 173.199 6.014 173.797 6.63C 174.394 7.246 174.693 8.09067 174.693 9.164L 174.693 9.682C 174.693 10.7553 174.399 11.6 173.811 12.216C 173.223 12.832 172.42 13.14 171.403 13.14C 170.385 13.14 169.583 12.832 168.995 12.216C 168.407 11.6 168.113 10.7553 168.113 9.682L 168.113 9.164C 168.113 8.09067 168.411 7.246 169.009 6.63C 169.606 6.014 170.404 5.706 171.403 5.706ZM 171.403 6.756C 170.777 6.756 170.292 6.97067 169.947 7.4C 169.601 7.82933 169.429 8.45933 169.429 9.29L 169.429 9.556C 169.429 10.368 169.597 10.9933 169.933 11.432C 170.278 11.8707 170.768 12.09 171.403 12.09C 172.019 12.09 172.499 11.8753 172.845 11.446C 173.199 11.0073 173.377 10.3773 173.377 9.556L 173.377 9.29C 173.377 8.478 173.204 7.85267 172.859 7.414C 172.523 6.97533 172.037 6.756 171.403 6.756ZM 178.532 2.808C 179.064 2.808 179.502 2.89667 179.848 3.074L 179.848 4.04C 179.568 3.91867 179.33 3.858 179.134 3.858C 178.76 3.858 178.508 3.928 178.378 4.068C 178.247 4.19867 178.182 4.42267 178.182 4.74L 178.182 5.846L 179.848 5.846L 179.848 6.896L 178.182 6.896L 178.182 13L 176.866 13L 176.866 6.896L 176.082 6.896L 176.082 5.846L 176.866 5.846L 176.866 4.88C 176.866 3.49867 177.421 2.808 178.532 2.808ZM 7.14 29.6C 7.14 29.768 7.17733 29.894 7.252 29.978C 7.32667 30.0527 7.42 30.09 7.532 30.09C 7.73733 30.09 7.94733 30.0247 8.162 29.894L 8.162 30.86C 7.87267 31.0467 7.57867 31.14 7.28 31.14C 6.776 31.14 6.42133 31.0373 6.216 30.832C 6.02 30.6267 5.91267 30.3373 5.894 29.964C 5.642 30.3373 5.31533 30.6267 4.914 30.832C 4.522 31.0373 4.06933 31.14 3.556 31.14C 2.83733 31.14 2.24467 30.93 1.778 30.51C 1.32067 30.0807 1.092 29.4647 1.092 28.662L 1.092 23.846L 2.408 23.846L 2.408 28.424C 2.408 29.5347 2.912 30.09 3.92 30.09C 4.24667 30.09 4.55467 30.0013 4.844 29.824C 5.14267 29.6467 5.38067 29.4087 5.558 29.11C 5.73533 28.802 5.824 28.466 5.824 28.102L 5.824 23.846L 7.14 23.846L 7.14 29.6ZM 12.5463 23.706C 13.0783 23.706 13.5496 23.79 13.9603 23.958C 14.3803 24.126 14.7023 24.3593 14.9263 24.658C 15.1596 24.9567 15.2763 25.288 15.2763 25.652L 15.2623 25.904L 13.9603 25.904L 13.9603 25.778C 13.9603 25.0967 13.433 24.756 12.3783 24.756C 11.333 24.756 10.8103 25.0687 10.8103 25.694C 10.8103 25.9833 10.9596 26.198 11.2583 26.338C 11.557 26.4687 12.0143 26.5947 12.6303 26.716C 13.2183 26.8373 13.699 26.9633 14.0723 27.094C 14.455 27.2247 14.777 27.43 15.0383 27.71C 15.309 27.99 15.4443 28.368 15.4443 28.844C 15.4443 29.6093 15.183 30.1833 14.6603 30.566C 14.1376 30.9487 13.3863 31.14 12.4063 31.14L 12.1963 31.14C 11.6083 31.14 11.095 31.0513 10.6563 30.874C 10.2176 30.6873 9.87696 30.44 9.6343 30.132C 9.40096 29.8147 9.28896 29.46 9.2983 29.068L 9.2983 28.76L 10.6003 28.76L 10.6003 28.9C 10.6003 29.6933 11.2676 30.09 12.6023 30.09C 12.9943 30.09 13.3443 30.0013 13.6523 29.824C 13.9696 29.6467 14.1283 29.404 14.1283 29.096C 14.1283 28.8347 14.0396 28.6293 13.8623 28.48C 13.6943 28.3307 13.4843 28.2187 13.2323 28.144C 12.9803 28.0693 12.6303 27.9947 12.1823 27.92C 11.6036 27.808 11.137 27.696 10.7823 27.584C 10.4276 27.4627 10.1243 27.262 9.8723 26.982C 9.6203 26.702 9.4943 26.3193 9.4943 25.834C 9.4943 25.1713 9.75563 24.6533 10.2783 24.28C 10.801 23.8973 11.515 23.706 12.4203 23.706L 12.5463 23.706ZM 20.1648 23.706C 20.7528 23.706 21.2708 23.832 21.7188 24.084C 22.1761 24.3267 22.5308 24.6767 22.7828 25.134C 23.0348 25.5913 23.1608 26.1233 23.1608 26.73L 23.1608 27.724L 18.1628 27.724C 18.1815 28.48 18.3588 29.0633 18.6948 29.474C 19.0308 29.8847 19.5301 30.09 20.1928 30.09C 20.7808 30.09 21.2148 29.9173 21.4948 29.572C 21.7748 29.2267 21.9148 28.816 21.9148 28.34L 23.1608 28.34C 23.1608 28.9 23.0301 29.39 22.7688 29.81C 22.5168 30.23 22.1621 30.5567 21.7048 30.79C 21.2568 31.0233 20.7435 31.14 20.1648 31.14L 20.1088 31.14C 19.1008 31.14 18.3028 30.818 17.7148 30.174C 17.1361 29.5207 16.8468 28.6527 16.8468 27.57L 16.8468 27.29C 16.8468 26.5807 16.9775 25.9553 17.2388 25.414C 17.5001 24.8727 17.8735 24.4527 18.3588 24.154C 18.8441 23.8553 19.4135 23.706 20.0668 23.706L 20.1648 23.706ZM 20.0948 24.756C 19.5628 24.756 19.1288 24.9193 18.7928 25.246C 18.4661 25.5727 18.2655 26.058 18.1908 26.702L 21.8588 26.702L 21.8588 26.534C 21.8588 26.002 21.6955 25.5727 21.3688 25.246C 21.0515 24.9193 20.6268 24.756 20.0948 24.756ZM 28.2941 23.706C 28.9568 23.706 29.4748 23.9207 29.8481 24.35C 30.2214 24.77 30.4081 25.302 30.4081 25.946L 30.3661 26.478L 29.2041 26.478L 29.2041 26.17C 29.2041 25.89 29.1341 25.6427 28.9941 25.428C 28.8541 25.2133 28.6768 25.05 28.4621 24.938C 28.2474 24.8167 28.0328 24.756 27.8181 24.756C 27.3701 24.756 27.0201 24.9333 26.7681 25.288C 26.5161 25.6427 26.3901 26.1233 26.3901 26.73L 26.3901 31L 25.0741 31L 25.0741 23.846L 26.0121 23.846L 26.2081 24.91C 26.2641 24.7233 26.3901 24.5367 26.5861 24.35C 26.7821 24.1633 27.0248 24.0093 27.3141 23.888C 27.6128 23.7667 27.9394 23.706 28.2941 23.706ZM 34.6674 23.706C 35.1994 23.706 35.6707 23.79 36.0814 23.958C 36.5014 24.126 36.8234 24.3593 37.0474 24.658C 37.2807 24.9567 37.3974 25.288 37.3974 25.652L 37.3834 25.904L 36.0814 25.904L 36.0814 25.778C 36.0814 25.0967 35.5541 24.756 34.4994 24.756C 33.4541 24.756 32.9314 25.0687 32.9314 25.694C 32.9314 25.9833 33.0807 26.198 33.3794 26.338C 33.6781 26.4687 34.1354 26.5947 34.7514 26.716C 35.3394 26.8373 35.8201 26.9633 36.1934 27.094C 36.5761 27.2247 36.8981 27.43 37.1594 27.71C 37.4301 27.99 37.5654 28.368 37.5654 28.844C 37.5654 29.6093 37.3041 30.1833 36.7814 30.566C 36.2587 30.9487 35.5074 31.14 34.5274 31.14L 34.3174 31.14C 33.7294 31.14 33.2161 31.0513 32.7774 30.874C 32.3387 30.6873 31.9981 30.44 31.7554 30.132C 31.5221 29.8147 31.4101 29.46 31.4194 29.068L 31.4194 28.76L 32.7214 28.76L 32.7214 28.9C 32.7214 29.6933 33.3887 30.09 34.7234 30.09C 35.1154 30.09 35.4654 30.0013 35.7734 29.824C 36.0907 29.6467 36.2494 29.404 36.2494 29.096C 36.2494 28.8347 36.1607 28.6293 35.9834 28.48C 35.8154 28.3307 35.6054 28.2187 35.3534 28.144C 35.1014 28.0693 34.7514 27.9947 34.3034 27.92C 33.7247 27.808 33.2581 27.696 32.9034 27.584C 32.5487 27.4627 32.2454 27.262 31.9934 26.982C 31.7414 26.702 31.6154 26.3193 31.6154 25.834C 31.6154 25.1713 31.8767 24.6533 32.3994 24.28C 32.9221 23.8973 33.6361 23.706 34.5414 23.706L 34.6674 23.706ZM 45.6899 23.706C 46.6885 23.706 47.4865 24.014 48.0839 24.63C 48.6812 25.246 48.9799 26.0907 48.9799 27.164L 48.9799 27.682C 48.9799 28.7553 48.6859 29.6 48.0979 30.216C 47.5099 30.832 46.7072 31.14 45.6899 31.14C 44.6725 31.14 43.8699 30.832 43.2819 30.216C 42.6939 29.6 42.3999 28.7553 42.3999 27.682L 42.3999 27.164C 42.3999 26.0907 42.6985 25.246 43.2959 24.63C 43.8932 24.014 44.6912 23.706 45.6899 23.706ZM 45.6899 24.756C 45.0645 24.756 44.5792 24.9707 44.2339 25.4C 43.8885 25.8293 43.7159 26.4593 43.7159 27.29L 43.7159 27.556C 43.7159 28.368 43.8839 28.9933 44.2199 29.432C 44.5652 29.8707 45.0552 30.09 45.6899 30.09C 46.3059 30.09 46.7865 29.8753 47.1319 29.446C 47.4865 29.0073 47.6639 28.3773 47.6639 27.556L 47.6639 27.29C 47.6639 26.478 47.4912 25.8527 47.1459 25.414C 46.8099 24.9753 46.3245 24.756 45.6899 24.756ZM 54.4009 23.706C 55.1849 23.706 55.8009 23.916 56.2489 24.336C 56.6969 24.756 56.9209 25.372 56.9209 26.184L 56.9209 31L 55.6049 31L 55.6049 26.422C 55.6049 25.3113 55.1009 24.756 54.0929 24.756C 53.7569 24.756 53.4443 24.8447 53.1549 25.022C 52.8656 25.1993 52.6323 25.442 52.4549 25.75C 52.2776 26.0487 52.1889 26.38 52.1889 26.744L 52.1889 31L 50.8729 31L 50.8729 23.846L 51.8249 23.846L 52.0069 24.896C 52.6043 24.1027 53.4023 23.706 54.4009 23.706ZM 69.1697 21.396L 69.1697 22.642L 66.1597 22.642L 66.1597 31L 64.7877 31L 64.7877 22.642L 61.7777 22.642L 61.7777 21.396L 69.1697 21.396ZM 72.9601 23.706C 73.6228 23.706 74.1408 23.9207 74.5141 24.35C 74.8875 24.77 75.0741 25.302 75.0741 25.946L 75.0321 26.478L 73.8701 26.478L 73.8701 26.17C 73.8701 25.89 73.8001 25.6427 73.6601 25.428C 73.5201 25.2133 73.3428 25.05 73.1281 24.938C 72.9135 24.8167 72.6988 24.756 72.4841 24.756C 72.0361 24.756 71.6861 24.9333 71.4341 25.288C 71.1821 25.6427 71.0561 26.1233 71.0561 26.73L 71.0561 31L 69.7401 31L 69.7401 23.846L 70.6781 23.846L 70.8741 24.91C 70.9301 24.7233 71.0561 24.5367 71.2521 24.35C 71.4481 24.1633 71.6908 24.0093 71.9801 23.888C 72.2788 23.7667 72.6055 23.706 72.9601 23.706ZM 77.9474 20.92L 77.9474 22.138L 76.5754 22.138L 76.5754 20.92L 77.9474 20.92ZM 77.9194 23.846L 77.9194 31L 76.6034 31L 76.6034 23.846L 77.9194 23.846ZM 83.6141 23.706C 84.5195 23.706 85.2288 24.0373 85.7421 24.7C 86.2555 25.3627 86.5121 26.2727 86.5121 27.43L 86.5121 27.584C 86.5121 28.6853 86.2555 29.5533 85.7421 30.188C 85.2381 30.8227 84.5288 31.14 83.6141 31.14C 82.7368 31.14 82.0508 30.79 81.5561 30.09L 81.5561 33.534L 80.2401 33.534L 80.2401 23.846L 81.2201 23.846C 81.2855 24.1447 81.3461 24.4713 81.4021 24.826C 81.9341 24.0793 82.6715 23.706 83.6141 23.706ZM 83.3761 24.756C 82.7415 24.756 82.2748 24.9753 81.9761 25.414C 81.6868 25.8527 81.5421 26.52 81.5421 27.416C 81.5421 28.3307 81.6915 29.0073 81.9901 29.446C 82.2981 29.8753 82.7601 30.09 83.3761 30.09C 83.9921 30.09 84.4495 29.8707 84.7481 29.432C 85.0468 28.9933 85.1961 28.3213 85.1961 27.416C 85.1961 26.5013 85.0421 25.8293 84.7341 25.4C 84.4355 24.9707 83.9828 24.756 83.3761 24.756ZM 92.5602 21.396L 96.3122 31L 94.8282 31L 94.0162 28.914L 89.4242 28.914L 88.6262 31L 87.2962 31L 91.0482 21.396L 92.5602 21.396ZM 91.7762 23.048L 91.6922 23.048L 89.9142 27.668L 93.5402 27.668L 91.7762 23.048ZM 103.373 31L 102.393 31C 102.328 30.7013 102.267 30.3747 102.211 30.02C 101.679 30.7667 100.942 31.14 99.999 31.14C 99.103 31.14 98.3937 30.8087 97.871 30.146C 97.3577 29.4833 97.101 28.5733 97.101 27.416L 97.101 27.262C 97.101 26.17 97.353 25.3067 97.857 24.672C 98.3704 24.028 99.0844 23.706 99.999 23.706C 100.886 23.706 101.572 24.056 102.057 24.756L 102.057 20.92L 103.373 20.92L 103.373 31ZM 100.237 24.756C 99.6117 24.756 99.1497 24.9753 98.851 25.414C 98.5617 25.8433 98.417 26.5153 98.417 27.43C 98.417 28.3447 98.5664 29.0167 98.865 29.446C 99.1637 29.8753 99.621 30.09 100.237 30.09C 101.46 30.09 102.071 29.2033 102.071 27.43C 102.071 26.5153 101.917 25.8433 101.609 25.414C 101.301 24.9753 100.844 24.756 100.237 24.756ZM 111.535 23.846L 108.819 31L 107.419 31L 104.703 23.846L 106.103 23.846L 108.147 29.32L 108.203 29.32L 110.247 23.846L 111.535 23.846ZM 114.205 20.92L 114.205 22.138L 112.833 22.138L 112.833 20.92L 114.205 20.92ZM 114.177 23.846L 114.177 31L 112.861 31L 112.861 23.846L 114.177 23.846ZM 119.228 23.706C 119.76 23.706 120.231 23.79 120.642 23.958C 121.062 24.126 121.384 24.3593 121.608 24.658C 121.841 24.9567 121.958 25.288 121.958 25.652L 121.944 25.904L 120.642 25.904L 120.642 25.778C 120.642 25.0967 120.115 24.756 119.06 24.756C 118.015 24.756 117.492 25.0687 117.492 25.694C 117.492 25.9833 117.641 26.198 117.94 26.338C 118.239 26.4687 118.696 26.5947 119.312 26.716C 119.9 26.8373 120.381 26.9633 120.754 27.094C 121.137 27.2247 121.459 27.43 121.72 27.71C 121.991 27.99 122.126 28.368 122.126 28.844C 122.126 29.6093 121.865 30.1833 121.342 30.566C 120.819 30.9487 120.068 31.14 119.088 31.14L 118.878 31.14C 118.29 31.14 117.777 31.0513 117.338 30.874C 116.899 30.6873 116.559 30.44 116.316 30.132C 116.083 29.8147 115.971 29.46 115.98 29.068L 115.98 28.76L 117.282 28.76L 117.282 28.9C 117.282 29.6933 117.949 30.09 119.284 30.09C 119.676 30.09 120.026 30.0013 120.334 29.824C 120.651 29.6467 120.81 29.404 120.81 29.096C 120.81 28.8347 120.721 28.6293 120.544 28.48C 120.376 28.3307 120.166 28.2187 119.914 28.144C 119.662 28.0693 119.312 27.9947 118.864 27.92C 118.285 27.808 117.819 27.696 117.464 27.584C 117.109 27.4627 116.806 27.262 116.554 26.982C 116.302 26.702 116.176 26.3193 116.176 25.834C 116.176 25.1713 116.437 24.6533 116.96 24.28C 117.483 23.8973 118.197 23.706 119.102 23.706L 119.228 23.706ZM 126.832 23.706C 127.831 23.706 128.629 24.014 129.226 24.63C 129.824 25.246 130.122 26.0907 130.122 27.164L 130.122 27.682C 130.122 28.7553 129.828 29.6 129.24 30.216C 128.652 30.832 127.85 31.14 126.832 31.14C 125.815 31.14 125.012 30.832 124.424 30.216C 123.836 29.6 123.542 28.7553 123.542 27.682L 123.542 27.164C 123.542 26.0907 123.841 25.246 124.438 24.63C 125.036 24.014 125.834 23.706 126.832 23.706ZM 126.832 24.756C 126.207 24.756 125.722 24.9707 125.376 25.4C 125.031 25.8293 124.858 26.4593 124.858 27.29L 124.858 27.556C 124.858 28.368 125.026 28.9933 125.362 29.432C 125.708 29.8707 126.198 30.09 126.832 30.09C 127.448 30.09 127.929 29.8753 128.274 29.446C 128.629 29.0073 128.806 28.3773 128.806 27.556L 128.806 27.29C 128.806 26.478 128.634 25.8527 128.288 25.414C 127.952 24.9753 127.467 24.756 126.832 24.756ZM 135.236 23.706C 135.898 23.706 136.416 23.9207 136.79 24.35C 137.163 24.77 137.35 25.302 137.35 25.946L 137.308 26.478L 136.146 26.478L 136.146 26.17C 136.146 25.89 136.076 25.6427 135.936 25.428C 135.796 25.2133 135.618 25.05 135.404 24.938C 135.189 24.8167 134.974 24.756 134.76 24.756C 134.312 24.756 133.962 24.9333 133.71 25.288C 133.458 25.6427 133.332 26.1233 133.332 26.73L 133.332 31L 132.016 31L 132.016 23.846L 132.954 23.846L 133.15 24.91C 133.206 24.7233 133.332 24.5367 133.528 24.35C 133.724 24.1633 133.966 24.0093 134.256 23.888C 134.554 23.7667 134.881 23.706 135.236 23.706Z"/>
<path id="path1_fill" d="M 12.7546 5.22347L 10.154 7.72721L 10.7781 11.2158C 10.7989 11.3393 10.7837 11.4659 10.7342 11.5815C 10.6847 11.6972 10.6028 11.7974 10.4977 11.8709C 10.3926 11.9444 10.2683 11.9884 10.1388 11.998C 10.0092 12.0076 9.87941 11.9824 9.76385 11.9252L 6.46099 10.2477L 3.20147 11.9168C 3.08591 11.974 2.95613 11.9992 2.82657 11.9897C 2.697 11.9801 2.57274 11.9361 2.46761 11.8626C 2.36249 11.789 2.28061 11.6889 2.2311 11.5732C 2.1816 11.4575 2.1664 11.3309 2.1872 11.2074L 2.81137 7.71887L 0.210685 5.21512C 0.117252 5.12696 0.0512595 5.01543 0.0201467 4.8931C -0.0109661 4.77076 -0.00596193 4.64249 0.0345963 4.52275C 0.0751546 4.40301 0.149653 4.29655 0.249693 4.21539C 0.349732 4.13423 0.471334 4.08159 0.600787 4.0634L 4.24174 3.55431L 5.8715 0.37455C 5.92973 0.262035 6.01939 0.167378 6.13042 0.101215C 6.24144 0.0350509 6.36943 -1.48251e-15 6.5 4.70255e-29C 6.63057 -1.48251e-15 6.75856 0.0350509 6.86959 0.101215C 6.98061 0.167378 7.07027 0.262035 7.1285 0.37455L 8.75826 3.55431L 12.3992 4.0634C 12.5287 4.08159 12.6503 4.13423 12.7503 4.21539C 12.8503 4.29655 12.9248 4.40301 12.9654 4.52275C 13.006 4.64249 13.011 4.77076 12.9799 4.8931C 12.9487 5.01543 12.8827 5.12696 12.7893 5.21512L 12.7546 5.22347Z"/>
<path id="path2_stroke" d="M 0 0L 50 0L 50 -1L 0 -1L 0 0Z"/>
<path id="path3_fill" d="M 4.07767 2.09983C 4.07767 3.26197 3.16457 4.21298 2.03975 4.21298C 0.911262 4.21298 9.12939e-08 3.26197 9.12939e-08 2.09983C 9.12939e-08 0.9396 0.911262 3.04737e-07 2.03975 3.04737e-07C 3.16457 3.04737e-07 4.07767 0.9396 4.07767 2.09983Z"/>
<path id="path4_fill" d="M 4.07399 2.09983C 4.07399 3.26197 3.16457 4.21298 2.03976 4.21298C 0.907581 4.21298 8.70803e-07 3.26197 8.70803e-07 2.09983C 8.70803e-07 0.9396 0.907581 3.04737e-07 2.03976 3.04737e-07C 3.16457 3.04737e-07 4.07399 0.9396 4.07399 2.09983Z"/>
<path id="path5_fill" d="M 6.32035e-08 6.25386C 6.32035e-08 9.70983 2.7209 12.5153 6.06404 12.5153C 9.39981 12.5153 12.1189 9.70983 12.1189 6.25386C 12.1189 2.80739 9.39797 2.75715e-07 6.06404 2.75715e-07C 2.7209 0.00380432 6.32035e-08 2.80739 6.32035e-08 6.25386ZM 2.08946 6.25386C 2.08946 3.99425 3.87701 2.15499 6.06772 2.15499C 8.25475 2.15499 10.0331 3.99615 10.0331 6.25386C 10.0331 8.52107 8.25475 10.3622 6.06772 10.3622C 3.87701 10.3641 2.08946 8.52297 2.08946 6.25386Z"/>
<path id="path6_fill" d="M -1.65734e-06 6.25386C -1.65734e-06 9.70983 2.71722 12.5153 6.06036 12.5153C 9.39797 12.5153 12.1133 9.70983 12.1133 6.25386C 12.1133 2.80739 9.39797 2.75715e-07 6.06036 2.75715e-07C 2.71906 0.00380432 -1.65734e-06 2.80739 -1.65734e-06 6.25386ZM 2.08946 6.25386C 2.08946 3.99425 3.87148 2.15499 6.06404 2.15499C 8.25107 2.15499 10.0276 3.99615 10.0276 6.25386C 10.0276 8.52107 8.25107 10.3622 6.06404 10.3622C 3.86964 10.3641 2.08946 8.52297 2.08946 6.25386Z"/>
<path id="path7_fill" d="M 46.5885 9.78401C 47.1629 7.241 48.9891 4.69419 48.9891 4.69419L 40.7988 4.68849C 36.2057 1.62433 30.6295 1.01579e-07 24.4494 1.01579e-07C 18.0356 1.01579e-07 12.2441 1.66427 7.6767 4.74935L 0 4.75506C 0 4.75506 1.80412 7.27334 2.38769 9.79923C 0.894694 11.8953 0.00736374 14.4744 0.00736374 17.2723C 0.00736374 24.2603 5.51176 29.9436 12.2772 29.9436C 16.145 29.9436 19.5931 28.0815 21.8427 25.1885L 24.455 29.2303L 27.0875 25.1543C 28.2712 26.7101 29.7992 27.9731 31.5904 28.829C 34.5691 30.2441 37.9067 30.3829 40.9792 29.2113C 47.3267 26.7843 50.5852 19.4748 48.238 12.9243C 47.8256 11.7716 47.2623 10.7236 46.5885 9.78401ZM 24.4476 2.21205C 28.8566 2.21205 32.8367 3.03563 36.3529 4.66376C 35.0606 4.6999 33.7554 4.93765 32.4778 5.42267C 29.4034 6.59432 26.9513 8.93381 25.5835 12.0132C 24.9612 13.4074 24.6096 14.8795 24.501 16.3688C 24.0518 9.88482 18.8806 4.73794 12.5202 4.6048C 16.0327 3.05465 20.0699 2.21205 24.4476 2.21205ZM 20.3828 22.9346C 18.621 25.6184 15.6424 27.3872 12.2735 27.3872C 6.87221 27.3872 2.4779 22.8433 2.4779 17.2723C 2.4779 11.6898 6.87405 7.15351 12.2735 7.15351C 17.673 7.15351 22.0673 11.6898 22.0673 17.2723C 22.0673 17.6127 22.0028 17.9342 21.9697 18.2632C 21.8059 19.9751 21.2738 21.5785 20.3828 22.9346ZM 40.1195 26.8109C 37.6655 27.7448 35.0035 27.6402 32.6269 26.5066C 30.9406 25.7001 29.5599 24.4353 28.5658 22.8661C 28.1608 22.2309 27.8036 21.5556 27.5422 20.8196C 27.244 19.9865 27.0949 19.1268 27.0139 18.2613C 26.85 16.5058 27.0967 14.7274 27.8294 13.084C 28.9266 10.6285 30.8817 8.75882 33.3356 7.82302C 38.4037 5.89247 44.0443 8.57813 45.9166 13.8125C 47.787 19.045 45.1857 24.8728 40.1195 26.8109Z"/>
</defs>
</svg>
